# xmcd
#
# Track frame offsets: 
#        150
#        11780
#        21757
#        46423
#        60848
#        80838
#        99331
#        121859
#        143994
#        163746
#        182941
#        203074
#        220076
#        248119
#
# Disc length: 3562 seconds
#
# Revision: 1
# Processed by: cddbd v1.4PL0 Copyright (c) Steve Scherf et al.
# Submitted via: ExactAudioCopy v0.90b2
#
DISCID=bd0de80e
DTITLE=Joaquin Sabina y Fito Paez - Enemigos Intimos
DYEAR=1900
DGENRE=Alt. Rock
TTITLE0=La Vida Moderna
TTITLE1=Lazaro
TTITLE2=Llueve Sobre Mojado
TTITLE3=Tengo Una Muñeca Que Regala Besos
TTITLE4=Si Volvieran Los Dragones
TTITLE5=Cecilia
TTITLE6=Delirium Tremens
TTITLE7=Yo Me Bajo En Atocha
TTITLE8=Buenos Aires
TTITLE9=Mas Guapa Que Cualquiera
TTITLE10=Flores En Su Entierro
TTITLE11=Hasta Cuando?
TTITLE12=La Cancion De Los (Buenos) Borrachos
TTITLE13=Enemigos Intimos
EXTD=
EXTT0=
EXTT1=
EXTT2=
EXTT3=
EXTT4=
EXTT5=
EXTT6=
EXTT7=
EXTT8=
EXTT9=
EXTT10=
EXTT11=
EXTT12=
EXTT13=
PLAYORDER=
